<mxfile host="www.draw.io" modified="2019-11-26T10:49:17.446Z" agent="Mozilla/5.0 (Windows NT 10.0; Win64; x64) AppleWebKit/537.36 (KHTML, like Gecko) Chrome/78.0.3904.108 Safari/537.36" etag="9IdXdEEQNdMOy9ugG7XF" version="12.3.1" type="github" pages="1">
  <diagram id="TAgU01e7xPZmYfadR9wz" name="Page-1">
    <mxGraphModel dx="3147" dy="1850" grid="0" gridSize="10" guides="1" tooltips="1" connect="1" arrows="1" fold="1" page="1" pageScale="1" pageWidth="850" pageHeight="1100" math="0" shadow="0">
      <root>
        <mxCell id="0"/>
        <mxCell id="1" parent="0"/>
        <mxCell id="9APxJIkFRAZ3n7njxZOx-3" value="" style="edgeStyle=orthogonalEdgeStyle;rounded=0;orthogonalLoop=1;jettySize=auto;html=1;" edge="1" parent="1" source="9APxJIkFRAZ3n7njxZOx-1" target="9APxJIkFRAZ3n7njxZOx-2">
          <mxGeometry relative="1" as="geometry">
            <Array as="points">
              <mxPoint x="507" y="131"/>
              <mxPoint x="507" y="131"/>
            </Array>
          </mxGeometry>
        </mxCell>
        <mxCell id="9APxJIkFRAZ3n7njxZOx-22" value="" style="edgeStyle=orthogonalEdgeStyle;rounded=0;orthogonalLoop=1;jettySize=auto;html=1;" edge="1" parent="1" source="9APxJIkFRAZ3n7njxZOx-1">
          <mxGeometry relative="1" as="geometry">
            <mxPoint x="135" y="198" as="targetPoint"/>
            <Array as="points">
              <mxPoint x="135" y="110"/>
            </Array>
          </mxGeometry>
        </mxCell>
        <mxCell id="9APxJIkFRAZ3n7njxZOx-25" value="" style="edgeStyle=orthogonalEdgeStyle;rounded=0;orthogonalLoop=1;jettySize=auto;html=1;" edge="1" parent="1" source="9APxJIkFRAZ3n7njxZOx-1" target="9APxJIkFRAZ3n7njxZOx-24">
          <mxGeometry relative="1" as="geometry">
            <Array as="points">
              <mxPoint x="804" y="40"/>
            </Array>
          </mxGeometry>
        </mxCell>
        <mxCell id="9APxJIkFRAZ3n7njxZOx-38" value="" style="edgeStyle=orthogonalEdgeStyle;rounded=0;orthogonalLoop=1;jettySize=auto;html=1;" edge="1" parent="1" source="9APxJIkFRAZ3n7njxZOx-1" target="9APxJIkFRAZ3n7njxZOx-37">
          <mxGeometry relative="1" as="geometry">
            <Array as="points">
              <mxPoint x="1360" y="40"/>
            </Array>
          </mxGeometry>
        </mxCell>
        <mxCell id="9APxJIkFRAZ3n7njxZOx-42" value="" style="edgeStyle=orthogonalEdgeStyle;rounded=0;orthogonalLoop=1;jettySize=auto;html=1;" edge="1" parent="1" source="9APxJIkFRAZ3n7njxZOx-1" target="9APxJIkFRAZ3n7njxZOx-41">
          <mxGeometry relative="1" as="geometry">
            <Array as="points">
              <mxPoint x="1551" y="40"/>
            </Array>
          </mxGeometry>
        </mxCell>
        <mxCell id="9APxJIkFRAZ3n7njxZOx-46" value="" style="edgeStyle=orthogonalEdgeStyle;rounded=0;orthogonalLoop=1;jettySize=auto;html=1;" edge="1" parent="1" source="9APxJIkFRAZ3n7njxZOx-1" target="9APxJIkFRAZ3n7njxZOx-45">
          <mxGeometry relative="1" as="geometry">
            <Array as="points">
              <mxPoint x="-400" y="40"/>
              <mxPoint x="-400" y="225"/>
            </Array>
          </mxGeometry>
        </mxCell>
        <mxCell id="9APxJIkFRAZ3n7njxZOx-50" value="" style="edgeStyle=orthogonalEdgeStyle;rounded=0;orthogonalLoop=1;jettySize=auto;html=1;" edge="1" parent="1" source="9APxJIkFRAZ3n7njxZOx-1" target="9APxJIkFRAZ3n7njxZOx-49">
          <mxGeometry relative="1" as="geometry">
            <Array as="points">
              <mxPoint x="-730" y="40"/>
            </Array>
          </mxGeometry>
        </mxCell>
        <mxCell id="9APxJIkFRAZ3n7njxZOx-58" value="" style="edgeStyle=orthogonalEdgeStyle;rounded=0;orthogonalLoop=1;jettySize=auto;html=1;" edge="1" parent="1" source="9APxJIkFRAZ3n7njxZOx-1" target="9APxJIkFRAZ3n7njxZOx-57">
          <mxGeometry relative="1" as="geometry">
            <Array as="points">
              <mxPoint x="-1057" y="40"/>
              <mxPoint x="-1057" y="230"/>
              <mxPoint x="-1040" y="230"/>
            </Array>
          </mxGeometry>
        </mxCell>
        <mxCell id="9APxJIkFRAZ3n7njxZOx-62" value="" style="edgeStyle=orthogonalEdgeStyle;rounded=0;orthogonalLoop=1;jettySize=auto;html=1;" edge="1" parent="1" source="9APxJIkFRAZ3n7njxZOx-1" target="9APxJIkFRAZ3n7njxZOx-61">
          <mxGeometry relative="1" as="geometry">
            <Array as="points">
              <mxPoint x="-1130" y="40"/>
              <mxPoint x="-1130" y="40"/>
            </Array>
          </mxGeometry>
        </mxCell>
        <mxCell id="9APxJIkFRAZ3n7njxZOx-66" value="" style="edgeStyle=orthogonalEdgeStyle;rounded=0;orthogonalLoop=1;jettySize=auto;html=1;" edge="1" parent="1" source="9APxJIkFRAZ3n7njxZOx-1" target="9APxJIkFRAZ3n7njxZOx-65">
          <mxGeometry relative="1" as="geometry"/>
        </mxCell>
        <mxCell id="9APxJIkFRAZ3n7njxZOx-68" value="" style="edgeStyle=orthogonalEdgeStyle;rounded=0;orthogonalLoop=1;jettySize=auto;html=1;" edge="1" parent="1" source="9APxJIkFRAZ3n7njxZOx-1" target="9APxJIkFRAZ3n7njxZOx-67">
          <mxGeometry relative="1" as="geometry">
            <Array as="points">
              <mxPoint x="1123" y="40"/>
            </Array>
          </mxGeometry>
        </mxCell>
        <mxCell id="9APxJIkFRAZ3n7njxZOx-1" value="Homepage" style="rounded=0;whiteSpace=wrap;html=1;" vertex="1" parent="1">
          <mxGeometry x="-10" y="-29" width="668" height="138" as="geometry"/>
        </mxCell>
        <mxCell id="9APxJIkFRAZ3n7njxZOx-81" value="" style="edgeStyle=orthogonalEdgeStyle;rounded=0;orthogonalLoop=1;jettySize=auto;html=1;" edge="1" parent="1" source="9APxJIkFRAZ3n7njxZOx-67" target="9APxJIkFRAZ3n7njxZOx-80">
          <mxGeometry relative="1" as="geometry"/>
        </mxCell>
        <mxCell id="9APxJIkFRAZ3n7njxZOx-67" value="Conatct&lt;br&gt;" style="rounded=0;whiteSpace=wrap;html=1;" vertex="1" parent="1">
          <mxGeometry x="983.5" y="166" width="252" height="60" as="geometry"/>
        </mxCell>
        <mxCell id="9APxJIkFRAZ3n7njxZOx-80" value="Panajachel Address with Official Website link&lt;br&gt;" style="rounded=0;whiteSpace=wrap;html=1;" vertex="1" parent="1">
          <mxGeometry x="983.5" y="351" width="252" height="60" as="geometry"/>
        </mxCell>
        <mxCell id="9APxJIkFRAZ3n7njxZOx-65" value="Photo Gallery&lt;br&gt;" style="rounded=0;whiteSpace=wrap;html=1;" vertex="1" parent="1">
          <mxGeometry x="1736" y="166" width="252" height="60" as="geometry"/>
        </mxCell>
        <mxCell id="9APxJIkFRAZ3n7njxZOx-64" value="" style="edgeStyle=orthogonalEdgeStyle;rounded=0;orthogonalLoop=1;jettySize=auto;html=1;" edge="1" parent="1" source="9APxJIkFRAZ3n7njxZOx-61" target="9APxJIkFRAZ3n7njxZOx-63">
          <mxGeometry relative="1" as="geometry"/>
        </mxCell>
        <mxCell id="9APxJIkFRAZ3n7njxZOx-61" value="Links&lt;br&gt;" style="rounded=0;whiteSpace=wrap;html=1;" vertex="1" parent="1">
          <mxGeometry x="-1575.5" y="196" width="252" height="60" as="geometry"/>
        </mxCell>
        <mxCell id="9APxJIkFRAZ3n7njxZOx-63" value="External Links With Logos&lt;br&gt;" style="rounded=0;whiteSpace=wrap;html=1;" vertex="1" parent="1">
          <mxGeometry x="-1575.5" y="420" width="252" height="60" as="geometry"/>
        </mxCell>
        <mxCell id="9APxJIkFRAZ3n7njxZOx-60" value="" style="edgeStyle=orthogonalEdgeStyle;rounded=0;orthogonalLoop=1;jettySize=auto;html=1;" edge="1" parent="1" source="9APxJIkFRAZ3n7njxZOx-57" target="9APxJIkFRAZ3n7njxZOx-59">
          <mxGeometry relative="1" as="geometry"/>
        </mxCell>
        <mxCell id="9APxJIkFRAZ3n7njxZOx-57" value="Activites&lt;br&gt;" style="rounded=0;whiteSpace=wrap;html=1;" vertex="1" parent="1">
          <mxGeometry x="-1145" y="196" width="158" height="60" as="geometry"/>
        </mxCell>
        <mxCell id="9APxJIkFRAZ3n7njxZOx-59" value="This to do in Panajachel&lt;br&gt;" style="rounded=0;whiteSpace=wrap;html=1;" vertex="1" parent="1">
          <mxGeometry x="-1145" y="416" width="158" height="60" as="geometry"/>
        </mxCell>
        <mxCell id="9APxJIkFRAZ3n7njxZOx-52" value="" style="edgeStyle=orthogonalEdgeStyle;rounded=0;orthogonalLoop=1;jettySize=auto;html=1;" edge="1" parent="1" source="9APxJIkFRAZ3n7njxZOx-49" target="9APxJIkFRAZ3n7njxZOx-51">
          <mxGeometry relative="1" as="geometry"/>
        </mxCell>
        <mxCell id="9APxJIkFRAZ3n7njxZOx-49" value="Coffee&lt;br&gt;" style="rounded=0;whiteSpace=wrap;html=1;" vertex="1" parent="1">
          <mxGeometry x="-850" y="196" width="252" height="60" as="geometry"/>
        </mxCell>
        <mxCell id="9APxJIkFRAZ3n7njxZOx-54" value="" style="edgeStyle=orthogonalEdgeStyle;rounded=0;orthogonalLoop=1;jettySize=auto;html=1;" edge="1" parent="1" source="9APxJIkFRAZ3n7njxZOx-51" target="9APxJIkFRAZ3n7njxZOx-53">
          <mxGeometry relative="1" as="geometry"/>
        </mxCell>
        <mxCell id="9APxJIkFRAZ3n7njxZOx-56" value="" style="edgeStyle=orthogonalEdgeStyle;rounded=0;orthogonalLoop=1;jettySize=auto;html=1;" edge="1" parent="1" source="9APxJIkFRAZ3n7njxZOx-51" target="9APxJIkFRAZ3n7njxZOx-55">
          <mxGeometry relative="1" as="geometry">
            <Array as="points">
              <mxPoint x="-725" y="543"/>
              <mxPoint x="-850" y="543"/>
            </Array>
          </mxGeometry>
        </mxCell>
        <mxCell id="9APxJIkFRAZ3n7njxZOx-51" value="Cross Road Cafe Details&lt;br&gt;" style="rounded=0;whiteSpace=wrap;html=1;" vertex="1" parent="1">
          <mxGeometry x="-850" y="411" width="252" height="60" as="geometry"/>
        </mxCell>
        <mxCell id="9APxJIkFRAZ3n7njxZOx-55" value="Opening Hours&lt;br&gt;" style="rounded=0;whiteSpace=wrap;html=1;" vertex="1" parent="1">
          <mxGeometry x="-920" y="626" width="167" height="60" as="geometry"/>
        </mxCell>
        <mxCell id="9APxJIkFRAZ3n7njxZOx-53" value="About&amp;nbsp;" style="rounded=0;whiteSpace=wrap;html=1;" vertex="1" parent="1">
          <mxGeometry x="-671" y="626" width="146" height="60" as="geometry"/>
        </mxCell>
        <mxCell id="9APxJIkFRAZ3n7njxZOx-48" value="" style="edgeStyle=orthogonalEdgeStyle;rounded=0;orthogonalLoop=1;jettySize=auto;html=1;" edge="1" parent="1" source="9APxJIkFRAZ3n7njxZOx-45" target="9APxJIkFRAZ3n7njxZOx-47">
          <mxGeometry relative="1" as="geometry"/>
        </mxCell>
        <mxCell id="9APxJIkFRAZ3n7njxZOx-45" value="Rental Real Estate&lt;br&gt;" style="rounded=0;whiteSpace=wrap;html=1;" vertex="1" parent="1">
          <mxGeometry x="-463" y="196" width="160" height="60" as="geometry"/>
        </mxCell>
        <mxCell id="9APxJIkFRAZ3n7njxZOx-47" value="Rental Apartments and resorts&lt;br&gt;with website links&lt;br&gt;&lt;br&gt;" style="rounded=0;whiteSpace=wrap;html=1;" vertex="1" parent="1">
          <mxGeometry x="-463" y="336" width="160" height="60" as="geometry"/>
        </mxCell>
        <mxCell id="9APxJIkFRAZ3n7njxZOx-44" value="" style="edgeStyle=orthogonalEdgeStyle;rounded=0;orthogonalLoop=1;jettySize=auto;html=1;" edge="1" parent="1" source="9APxJIkFRAZ3n7njxZOx-41" target="9APxJIkFRAZ3n7njxZOx-43">
          <mxGeometry relative="1" as="geometry">
            <Array as="points">
              <mxPoint x="1549" y="360"/>
            </Array>
          </mxGeometry>
        </mxCell>
        <mxCell id="9APxJIkFRAZ3n7njxZOx-41" value="Night Life&lt;br&gt;" style="rounded=0;whiteSpace=wrap;html=1;" vertex="1" parent="1">
          <mxGeometry x="1490.5" y="166" width="133" height="60" as="geometry"/>
        </mxCell>
        <mxCell id="9APxJIkFRAZ3n7njxZOx-43" value="Bars and Discos&lt;br&gt;" style="rounded=0;whiteSpace=wrap;html=1;" vertex="1" parent="1">
          <mxGeometry x="1476.5" y="351" width="133" height="60" as="geometry"/>
        </mxCell>
        <mxCell id="9APxJIkFRAZ3n7njxZOx-40" value="" style="edgeStyle=orthogonalEdgeStyle;rounded=0;orthogonalLoop=1;jettySize=auto;html=1;" edge="1" parent="1" source="9APxJIkFRAZ3n7njxZOx-37" target="9APxJIkFRAZ3n7njxZOx-39">
          <mxGeometry relative="1" as="geometry">
            <Array as="points">
              <mxPoint x="1360" y="303"/>
              <mxPoint x="1360" y="303"/>
            </Array>
          </mxGeometry>
        </mxCell>
        <mxCell id="9APxJIkFRAZ3n7njxZOx-37" value="Stores&lt;br&gt;" style="rounded=0;whiteSpace=wrap;html=1;" vertex="1" parent="1">
          <mxGeometry x="1266.5" y="166" width="155" height="60" as="geometry"/>
        </mxCell>
        <mxCell id="9APxJIkFRAZ3n7njxZOx-39" value="Store description with links&lt;br&gt;" style="rounded=0;whiteSpace=wrap;html=1;" vertex="1" parent="1">
          <mxGeometry x="1266.5" y="351" width="155" height="60" as="geometry"/>
        </mxCell>
        <mxCell id="9APxJIkFRAZ3n7njxZOx-27" value="" style="edgeStyle=orthogonalEdgeStyle;rounded=0;orthogonalLoop=1;jettySize=auto;html=1;" edge="1" parent="1" source="9APxJIkFRAZ3n7njxZOx-24" target="9APxJIkFRAZ3n7njxZOx-26">
          <mxGeometry relative="1" as="geometry">
            <Array as="points">
              <mxPoint x="781" y="298"/>
              <mxPoint x="781" y="298"/>
            </Array>
          </mxGeometry>
        </mxCell>
        <mxCell id="9APxJIkFRAZ3n7njxZOx-24" value="Arival Info&lt;br&gt;" style="rounded=0;whiteSpace=wrap;html=1;" vertex="1" parent="1">
          <mxGeometry x="716" y="166" width="177" height="60" as="geometry"/>
        </mxCell>
        <mxCell id="9APxJIkFRAZ3n7njxZOx-29" value="" style="edgeStyle=orthogonalEdgeStyle;rounded=0;orthogonalLoop=1;jettySize=auto;html=1;" edge="1" parent="1" source="9APxJIkFRAZ3n7njxZOx-26" target="9APxJIkFRAZ3n7njxZOx-28">
          <mxGeometry relative="1" as="geometry"/>
        </mxCell>
        <mxCell id="9APxJIkFRAZ3n7njxZOx-31" value="" style="edgeStyle=orthogonalEdgeStyle;rounded=0;orthogonalLoop=1;jettySize=auto;html=1;" edge="1" parent="1" source="9APxJIkFRAZ3n7njxZOx-26" target="9APxJIkFRAZ3n7njxZOx-30">
          <mxGeometry relative="1" as="geometry"/>
        </mxCell>
        <mxCell id="9APxJIkFRAZ3n7njxZOx-33" value="" style="edgeStyle=orthogonalEdgeStyle;rounded=0;orthogonalLoop=1;jettySize=auto;html=1;" edge="1" parent="1" source="9APxJIkFRAZ3n7njxZOx-26" target="9APxJIkFRAZ3n7njxZOx-32">
          <mxGeometry relative="1" as="geometry">
            <Array as="points">
              <mxPoint x="767" y="501"/>
              <mxPoint x="947" y="501"/>
            </Array>
          </mxGeometry>
        </mxCell>
        <mxCell id="9APxJIkFRAZ3n7njxZOx-35" value="" style="edgeStyle=orthogonalEdgeStyle;rounded=0;orthogonalLoop=1;jettySize=auto;html=1;" edge="1" parent="1" source="9APxJIkFRAZ3n7njxZOx-26" target="9APxJIkFRAZ3n7njxZOx-34">
          <mxGeometry relative="1" as="geometry">
            <Array as="points">
              <mxPoint x="767" y="501"/>
              <mxPoint x="489" y="501"/>
            </Array>
          </mxGeometry>
        </mxCell>
        <mxCell id="9APxJIkFRAZ3n7njxZOx-26" value="Transportation Lists&lt;br&gt;" style="rounded=0;whiteSpace=wrap;html=1;" vertex="1" parent="1">
          <mxGeometry x="641" y="336" width="252" height="60" as="geometry"/>
        </mxCell>
        <mxCell id="9APxJIkFRAZ3n7njxZOx-34" value="Shutter Service" style="rounded=0;whiteSpace=wrap;html=1;" vertex="1" parent="1">
          <mxGeometry x="404.5" y="596" width="127" height="60" as="geometry"/>
        </mxCell>
        <mxCell id="9APxJIkFRAZ3n7njxZOx-32" value="Panajachel Map&lt;br&gt;" style="rounded=0;whiteSpace=wrap;html=1;" vertex="1" parent="1">
          <mxGeometry x="893" y="602.5" width="120" height="60" as="geometry"/>
        </mxCell>
        <mxCell id="9APxJIkFRAZ3n7njxZOx-30" value="Airline Links&lt;br&gt;" style="rounded=0;whiteSpace=wrap;html=1;" vertex="1" parent="1">
          <mxGeometry x="715" y="596" width="107" height="60" as="geometry"/>
        </mxCell>
        <mxCell id="9APxJIkFRAZ3n7njxZOx-28" value="Car Rental&lt;br&gt;" style="rounded=0;whiteSpace=wrap;html=1;" vertex="1" parent="1">
          <mxGeometry x="566.5" y="602.5" width="121" height="47" as="geometry"/>
        </mxCell>
        <mxCell id="9APxJIkFRAZ3n7njxZOx-9" value="" style="edgeStyle=orthogonalEdgeStyle;rounded=0;orthogonalLoop=1;jettySize=auto;html=1;" edge="1" parent="1" source="9APxJIkFRAZ3n7njxZOx-6" target="9APxJIkFRAZ3n7njxZOx-8">
          <mxGeometry relative="1" as="geometry">
            <Array as="points">
              <mxPoint x="137" y="318"/>
              <mxPoint x="137" y="318"/>
            </Array>
          </mxGeometry>
        </mxCell>
        <mxCell id="9APxJIkFRAZ3n7njxZOx-6" value="Hotels" style="rounded=0;whiteSpace=wrap;html=1;" vertex="1" parent="1">
          <mxGeometry x="-14" y="196" width="230" height="60" as="geometry"/>
        </mxCell>
        <mxCell id="9APxJIkFRAZ3n7njxZOx-11" value="" style="edgeStyle=orthogonalEdgeStyle;rounded=0;orthogonalLoop=1;jettySize=auto;html=1;" edge="1" parent="1" source="9APxJIkFRAZ3n7njxZOx-8" target="9APxJIkFRAZ3n7njxZOx-10">
          <mxGeometry relative="1" as="geometry"/>
        </mxCell>
        <mxCell id="9APxJIkFRAZ3n7njxZOx-13" value="" style="edgeStyle=orthogonalEdgeStyle;rounded=0;orthogonalLoop=1;jettySize=auto;html=1;" edge="1" parent="1" source="9APxJIkFRAZ3n7njxZOx-8" target="9APxJIkFRAZ3n7njxZOx-12">
          <mxGeometry relative="1" as="geometry">
            <Array as="points">
              <mxPoint x="144" y="379"/>
              <mxPoint x="-41" y="379"/>
            </Array>
          </mxGeometry>
        </mxCell>
        <mxCell id="9APxJIkFRAZ3n7njxZOx-15" value="" style="edgeStyle=orthogonalEdgeStyle;rounded=0;orthogonalLoop=1;jettySize=auto;html=1;" edge="1" parent="1" source="9APxJIkFRAZ3n7njxZOx-8" target="9APxJIkFRAZ3n7njxZOx-14">
          <mxGeometry relative="1" as="geometry">
            <Array as="points">
              <mxPoint x="348" y="384"/>
            </Array>
          </mxGeometry>
        </mxCell>
        <mxCell id="9APxJIkFRAZ3n7njxZOx-8" value="Hotel Details&lt;br&gt;" style="rounded=0;whiteSpace=wrap;html=1;" vertex="1" parent="1">
          <mxGeometry x="73" y="360" width="142" height="60" as="geometry"/>
        </mxCell>
        <mxCell id="9APxJIkFRAZ3n7njxZOx-14" value="Reservation&lt;br&gt;" style="rounded=0;whiteSpace=wrap;html=1;" vertex="1" parent="1">
          <mxGeometry x="262.5" y="490" width="142" height="60" as="geometry"/>
        </mxCell>
        <mxCell id="9APxJIkFRAZ3n7njxZOx-12" value="Getting Here" style="rounded=0;whiteSpace=wrap;html=1;" vertex="1" parent="1">
          <mxGeometry x="-112" y="490" width="142" height="60" as="geometry"/>
        </mxCell>
        <mxCell id="9APxJIkFRAZ3n7njxZOx-10" value="Gallery&lt;br&gt;" style="rounded=0;whiteSpace=wrap;html=1;" vertex="1" parent="1">
          <mxGeometry x="73" y="490" width="142" height="60" as="geometry"/>
        </mxCell>
        <mxCell id="9APxJIkFRAZ3n7njxZOx-5" value="" style="edgeStyle=orthogonalEdgeStyle;rounded=0;orthogonalLoop=1;jettySize=auto;html=1;" edge="1" parent="1" source="9APxJIkFRAZ3n7njxZOx-2" target="9APxJIkFRAZ3n7njxZOx-4">
          <mxGeometry relative="1" as="geometry"/>
        </mxCell>
        <mxCell id="9APxJIkFRAZ3n7njxZOx-2" value="About Us" style="rounded=0;whiteSpace=wrap;html=1;" vertex="1" parent="1">
          <mxGeometry x="424.5" y="196" width="177" height="60" as="geometry"/>
        </mxCell>
        <mxCell id="9APxJIkFRAZ3n7njxZOx-4" value="History&lt;br&gt;" style="rounded=0;whiteSpace=wrap;html=1;" vertex="1" parent="1">
          <mxGeometry x="445" y="291" width="136" height="60" as="geometry"/>
        </mxCell>
      </root>
    </mxGraphModel>
  </diagram>
</mxfile>
